<svg width="716.00" height="106.00" xmlns="http://www.w3.org/2000/svg" xmlns:xlink="http://www.w3.org/1999/xlink">
	<text x="27.00" y="5.50" style="font-size: 10px;alignment-baseline: central; fill: #aaa;">Jan</text>
	<rect x="27.00" y="82.00" width="11.00" height="11.00" style="fill:#9BE9A8"></rect>
	<rect x="27.00" y="95.00" width="11.00" height="11.00" style="fill:#30A14E"></rect>
	<rect x="40.00" y="17.00" width="11.00" height="11.00" style="fill:#30A14E"></rect>
	<rect x="40.00" y="30.00" width="11.00" height="11.00" style="fill:#30A14E"></rect>
	<rect x="40.00" y="43.00" width="11.00" height="11.00" style="fill:#9BE9A8"></rect>
	<rect x="40.00" y="56.00" width="11.00" height="11.00" style="fill:#40C463"></rect>
	<rect x="40.00" y="69.00" width="11.00" height="11.00" style="fill:#9BE9A8"></rect>
	<rect x="40.00" y="82.00" width="11.00" height="11.00" style="fill:#EBEDF0"></rect>
	<rect x="40.00" y="95.00" width="11.00" height="11.00" style="fill:#EBEDF0"></rect>
	<rect x="53.00" y="17.00" width="11.00" height="11.00" style="fill:#EBEDF0"></rect>
	<rect x="53.00" y="30.00" width="11.00" height="11.00" style="fill:#40C463"></rect>
	<rect x="53.00" y="43.00" width="11.00" height="11.00" style="fill:#30A14E"></rect>
	<rect x="53.00" y="56.00" width="11.00" height="11.00" style="fill:#40C463"></rect>
	<rect x="53.00" y="69.00" width="11.00" height="11.00" style="fill:#9BE9A8"></rect>
	<rect x="53.00" y="82.00" width="11.00" height="11.00" style="fill:#EBEDF0"></rect>
	<rect x="53.00" y="95.00" width="11.00" height="11.00" style="fill:#40C463"></rect>
	<rect x="66.00" y="17.00" width="11.00" height="11.00" style="fill:#30A14E"></rect>
	<rect x="66.00" y="30.00" width="11.00" height="11.00" style="fill:#9BE9A8"></rect>
	<rect x="66.00" y="43.00" width="11.00" height="11.00" style="fill:#9BE9A8"></rect>
	<rect x="66.00" y="56.00" width="11.00" height="11.00" style="fill:#40C463"></rect>
	<rect x="66.00" y="69.00" width="11.00" height="11.00" style="fill:#30A14E"></rect>
	<rect x="66.00" y="82.00" width="11.00" height="11.00" style="fill:#40C463"></rect>
	<rect x="66.00" y="95.00" width="11.00" height="11.00" style="fill:#EBEDF0"></rect>
	<rect x="79.00" y="17.00" width="11.00" height="11.00" style="fill:#40C463"></rect>
	<rect x="79.00" y="30.00" width="11.00" height="11.00" style="fill:#30A14E"></rect>
	<rect x="79.00" y="43.00" width="11.00" height="11.00" style="fill:#30A14E"></rect>
	<rect x="79.00" y="56.00" width="11.00" height="11.00" style="fill:#30A14E"></rect>
	<rect x="79.00" y="69.00" width="11.00" height="11.00" style="fill:#EBEDF0"></rect>
	<rect x="79.00" y="82.00" width="11.00" height="11.00" style="fill:#40C463"></rect>
	<rect x="79.00" y="95.00" width="11.00" height="11.00" style="fill:#30A14E"></rect>
	<rect x="92.00" y="17.00" width="11.00" height="11.00" style="fill:#9BE9A8"></rect>
	<rect x="92.00" y="30.00" width="11.00" height="11.00" style="fill:#EBEDF0"></rect>
	<rect x="92.00" y="43.00" width="11.00" height="11.00" style="fill:#30A14E"></rect>
	<rect x="92.00" y="56.00" width="11.00" height="11.00" style="fill:#30A14E"></rect>
	<rect x="92.00" y="69.00" width="11.00" height="11.00" style="fill:#9BE9A8"></rect>
	<rect x="92.00" y="82.00" width="11.00" height="11.00" style="fill:#EBEDF0"></rect>
	<rect x="92.00" y="95.00" width="11.00" height="11.00" style="fill:#9BE9A8"></rect>
	<text x="105.00" y="5.50" style="font-size: 10px;alignment-baseline: central; fill: #aaa;">Feb</text>
	<rect x="105.00" y="17.00" width="11.00" height="11.00" style="fill:#30A14E"></rect>
	<rect x="105.00" y="30.00" width="11.00" height="11.00" style="fill:#9BE9A8"></rect>
	<rect x="105.00" y="43.00" width="11.00" height="11.00" style="fill:#40C463"></rect>
	<rect x="105.00" y="56.00" width="11.00" height="11.00" style="fill:#9BE9A8"></rect>
	<rect x="105.00" y="69.00" width="11.00" height="11.00" style="fill:#40C463"></rect>
	<rect x="105.00" y="82.00" width="11.00" height="11.00" style="fill:#40C463"></rect>
	<rect x="105.00" y="95.00" width="11.00" height="11.00" style="fill:#30A14E"></rect>
	<rect x="118.00" y="17.00" width="11.00" height="11.00" style="fill:#9BE9A8"></rect>
	<rect x="118.00" y="30.00" width="11.00" height="11.00" style="fill:#30A14E"></rect>
	<rect x="118.00" y="43.00" width="11.00" height="11.00" style="fill:#40C463"></rect>
	<rect x="118.00" y="56.00" width="11.00" height="11.00" style="fill:#EBEDF0"></rect>
	<rect x="118.00" y="69.00" width="11.00" height="11.00" style="fill:#30A14E"></rect>
	<rect x="118.00" y="82.00" width="11.00" height="11.00" style="fill:#9BE9A8"></rect>
	<rect x="118.00" y="95.00" width="11.00" height="11.00" style="fill:#9BE9A8"></rect>
	<rect x="131.00" y="17.00" width="11.00" height="11.00" style="fill:#9BE9A8"></rect>
	<rect x="131.00" y="30.00" width="11.00" height="11.00" style="fill:#9BE9A8"></rect>
	<rect x="131.00" y="43.00" width="11.00" height="11.00" style="fill:#30A14E"></rect>
	<rect x="131.00" y="56.00" width="11.00" height="11.00" style="fill:#EBEDF0"></rect>
	<rect x="131.00" y="69.00" width="11.00" height="11.00" style="fill:#9BE9A8"></rect>
	<rect x="131.00" y="82.00" width="11.00" height="11.00" style="fill:#EBEDF0"></rect>
	<rect x="131.00" y="95.00" width="11.00" height="11.00" style="fill:#40C463"></rect>
	<rect x="144.00" y="17.00" width="11.00" height="11.00" style="fill:#30A14E"></rect>
	<rect x="144.00" y="30.00" width="11.00" height="11.00" style="fill:#30A14E"></rect>
	<rect x="144.00" y="43.00" width="11.00" height="11.00" style="fill:#30A14E"></rect>
	<rect x="144.00" y="56.00" width="11.00" height="11.00" style="fill:#40C463"></rect>
	<rect x="144.00" y="69.00" width="11.00" height="11.00" style="fill:#9BE9A8"></rect>
	<rect x="144.00" y="82.00" width="11.00" height="11.00" style="fill:#EBEDF0"></rect>
	<rect x="144.00" y="95.00" width="11.00" height="11.00" style="fill:#40C463"></rect>
	<text x="157.00" y="5.50" style="font-size: 10px;alignment-baseline: central; fill: #aaa;">Mar</text>
	<rect x="157.00" y="17.00" width="11.00" height="11.00" style="fill:#EBEDF0"></rect>
	<rect x="157.00" y="30.00" width="11.00" height="11.00" style="fill:#9BE9A8"></rect>
	<rect x="157.00" y="43.00" width="11.00" height="11.00" style="fill:#40C463"></rect>
	<rect x="157.00" y="56.00" width="11.00" height="11.00" style="fill:#30A14E"></rect>
	<rect x="157.00" y="69.00" width="11.00" height="11.00" style="fill:#40C463"></rect>
	<rect x="157.00" y="82.00" width="11.00" height="11.00" style="fill:#30A14E"></rect>
	<rect x="157.00" y="95.00" width="11.00" height="11.00" style="fill:#EBEDF0"></rect>
	<rect x="170.00" y="17.00" width="11.00" height="11.00" style="fill:#40C463"></rect>
	<rect x="170.00" y="30.00" width="11.00" height="11.00" style="fill:#40C463"></rect>
	<rect x="170.00" y="43.00" width="11.00" height="11.00" style="fill:#30A14E"></rect>
	<rect x="170.00" y="56.00" width="11.00" height="11.00" style="fill:#40C463"></rect>
	<rect x="170.00" y="69.00" width="11.00" height="11.00" style="fill:#9BE9A8"></rect>
	<rect x="170.00" y="82.00" width="11.00" height="11.00" style="fill:#30A14E"></rect>
	<rect x="170.00" y="95.00" width="11.00" height="11.00" style="fill:#EBEDF0"></rect>
	<rect x="183.00" y="17.00" width="11.00" height="11.00" style="fill:#EBEDF0"></rect>
	<rect x="183.00" y="30.00" width="11.00" height="11.00" style="fill:#30A14E"></rect>
	<rect x="183.00" y="43.00" width="11.00" height="11.00" style="fill:#9BE9A8"></rect>
	<rect x="183.00" y="56.00" width="11.00" height="11.00" style="fill:#9BE9A8"></rect>
	<rect x="183.00" y="69.00" width="11.00" height="11.00" style="fill:#9BE9A8"></rect>
	<rect x="183.00" y="82.00" width="11.00" height="11.00" style="fill:#9BE9A8"></rect>
	<rect x="183.00" y="95.00" width="11.00" height="11.00" style="fill:#30A14E"></rect>
	<rect x="196.00" y="17.00" width="11.00" height="11.00" style="fill:#9BE9A8"></rect>
	<rect x="196.00" y="30.00" width="11.00" height="11.00" style="fill:#30A14E"></rect>
	<rect x="196.00" y="43.00" width="11.00" height="11.00" style="fill:#30A14E"></rect>
	<rect x="196.00" y="56.00" width="11.00" height="11.00" style="fill:#40C463"></rect>
	<rect x="196.00" y="69.00" width="11.00" height="11.00" style="fill:#40C463"></rect>
	<rect x="196.00" y="82.00" width="11.00" height="11.00" style="fill:#EBEDF0"></rect>
	<rect x="196.00" y="95.00" width="11.00" height="11.00" style="fill:#40C463"></rect>
	<text x="209.00" y="5.50" style="font-size: 10px;alignment-baseline: central; fill: #aaa;">Apr</text>
	<rect x="209.00" y="17.00" width="11.00" height="11.00" style="fill:#30A14E"></rect>
	<rect x="209.00" y="30.00" width="11.00" height="11.00" style="fill:#EBEDF0"></rect>
	<rect x="209.00" y="43.00" width="11.00" height="11.00" style="fill:#30A14E"></rect>
	<rect x="209.00" y="56.00" width="11.00" height="11.00" style="fill:#EBEDF0"></rect>
	<rect x="209.00" y="69.00" width="11.00" height="11.00" style="fill:#30A14E"></rect>
	<rect x="209.00" y="82.00" width="11.00" height="11.00" style="fill:#9BE9A8"></rect>
	<rect x="209.00" y="95.00" width="11.00" height="11.00" style="fill:#40C463"></rect>
	<rect x="222.00" y="17.00" width="11.00" height="11.00" style="fill:#9BE9A8"></rect>
	<rect x="222.00" y="30.00" width="11.00" height="11.00" style="fill:#30A14E"></rect>
	<rect x="222.00" y="43.00" width="11.00" height="11.00" style="fill:#30A14E"></rect>
	<rect x="222.00" y="56.00" width="11.00" height="11.00" style="fill:#9BE9A8"></rect>
	<rect x="222.00" y="69.00" width="11.00" height="11.00" style="fill:#30A14E"></rect>
	<rect x="222.00" y="82.00" width="11.00" height="11.00" style="fill:#40C463"></rect>
	<rect x="222.00" y="95.00" width="11.00" height="11.00" style="fill:#40C463"></rect>
	<rect x="235.00" y="17.00" width="11.00" height="11.00" style="fill:#9BE9A8"></rect>
	<rect x="235.00" y="30.00" width="11.00" height="11.00" style="fill:#40C463"></rect>
	<rect x="235.00" y="43.00" width="11.00" height="11.00" style="fill:#EBEDF0"></rect>
	<rect x="235.00" y="56.00" width="11.00" height="11.00" style="fill:#40C463"></rect>
	<rect x="235.00" y="69.00" width="11.00" height="11.00" style="fill:#9BE9A8"></rect>
	<rect x="235.00" y="82.00" width="11.00" height="11.00" style="fill:#30A14E"></rect>
	<rect x="235.00" y="95.00" width="11.00" height="11.00" style="fill:#40C463"></rect>
	<rect x="248.00" y="17.00" width="11.00" height="11.00" style="fill:#EBEDF0"></rect>
	<rect x="248.00" y="30.00" width="11.00" height="11.00" style="fill:#9BE9A8"></rect>
	<rect x="248.00" y="43.00" width="11.00" height="11.00" style="fill:#30A14E"></rect>
	<rect x="248.00" y="56.00" width="11.00" height="11.00" style="fill:#9BE9A8"></rect>
	<rect x="248.00" y="69.00" width="11.00" height="11.00" style="fill:#30A14E"></rect>
	<rect x="248.00" y="82.00" width="11.00" height="11.00" style="fill:#40C463"></rect>
	<rect x="248.00" y="95.00" width="11.00" height="11.00" style="fill:#40C463"></rect>
	<text x="261.00" y="5.50" style="font-size: 10px;alignment-baseline: central; fill: #aaa;">May</text>
	<rect x="261.00" y="17.00" width="11.00" height="11.00" style="fill:#40C463"></rect>
	<rect x="261.00" y="30.00" width="11.00" height="11.00" style="fill:#9BE9A8"></rect>
	<rect x="261.00" y="43.00" width="11.00" height="11.00" style="fill:#30A14E"></rect>
	<rect x="261.00" y="56.00" width="11.00" height="11.00" style="fill:#40C463"></rect>
	<rect x="261.00" y="69.00" width="11.00" height="11.00" style="fill:#40C463"></rect>
	<rect x="261.00" y="82.00" width="11.00" height="11.00" style="fill:#9BE9A8"></rect>
	<rect x="261.00" y="95.00" width="11.00" height="11.00" style="fill:#40C463"></rect>
	<rect x="274.00" y="17.00" width="11.00" height="11.00" style="fill:#30A14E"></rect>
	<rect x="274.00" y="30.00" width="11.00" height="11.00" style="fill:#9BE9A8"></rect>
	<rect x="274.00" y="43.00" width="11.00" height="11.00" style="fill:#EBEDF0"></rect>
	<rect x="274.00" y="56.00" width="11.00" height="11.00" style="fill:#30A14E"></rect>
	<rect x="274.00" y="69.00" width="11.00" height="11.00" style="fill:#9BE9A8"></rect>
	<rect x="274.00" y="82.00" width="11.00" height="11.00" style="fill:#40C463"></rect>
	<rect x="274.00" y="95.00" width="11.00" height="11.00" style="fill:#30A14E"></rect>
	<rect x="287.00" y="17.00" width="11.00" height="11.00" style="fill:#9BE9A8"></rect>
	<rect x="287.00" y="30.00" width="11.00" height="11.00" style="fill:#EBEDF0"></rect>
	<rect x="287.00" y="43.00" width="11.00" height="11.00" style="fill:#40C463"></rect>
	<rect x="287.00" y="56.00" width="11.00" height="11.00" style="fill:#EBEDF0"></rect>
	<rect x="287.00" y="69.00" width="11.00" height="11.00" style="fill:#30A14E"></rect>
	<rect x="287.00" y="82.00" width="11.00" height="11.00" style="fill:#EBEDF0"></rect>
	<rect x="287.00" y="95.00" width="11.00" height="11.00" style="fill:#30A14E"></rect>
	<rect x="300.00" y="17.00" width="11.00" height="11.00" style="fill:#EBEDF0"></rect>
	<rect x="300.00" y="30.00" width="11.00" height="11.00" style="fill:#EBEDF0"></rect>
	<rect x="300.00" y="43.00" width="11.00" height="11.00" style="fill:#EBEDF0"></rect>
	<rect x="300.00" y="56.00" width="11.00" height="11.00" style="fill:#30A14E"></rect>
	<rect x="300.00" y="69.00" width="11.00" height="11.00" style="fill:#EBEDF0"></rect>
	<rect x="300.00" y="82.00" width="11.00" height="11.00" style="fill:#40C463"></rect>
	<rect x="300.00" y="95.00" width="11.00" height="11.00" style="fill:#30A14E"></rect>
	<rect x="313.00" y="17.00" width="11.00" height="11.00" style="fill:#EBEDF0"></rect>
	<rect x="313.00" y="30.00" width="11.00" height="11.00" style="fill:#EBEDF0"></rect>
	<rect x="313.00" y="43.00" width="11.00" height="11.00" style="fill:#30A14E"></rect>
	<rect x="313.00" y="56.00" width="11.00" height="11.00" style="fill:#EBEDF0"></rect>
	<rect x="313.00" y="69.00" width="11.00" height="11.00" style="fill:#EBEDF0"></rect>
	<rect x="313.00" y="82.00" width="11.00" height="11.00" style="fill:#9BE9A8"></rect>
	<rect x="313.00" y="95.00" width="11.00" height="11.00" style="fill:#30A14E"></rect>
	<text x="326.00" y="5.50" style="font-size: 10px;alignment-baseline: central; fill: #aaa;">Jun</text>
	<rect x="326.00" y="17.00" width="11.00" height="11.00" style="fill:#9BE9A8"></rect>
	<rect x="326.00" y="30.00" width="11.00" height="11.00" style="fill:#40C463"></rect>
	<rect x="326.00" y="43.00" width="11.00" height="11.00" style="fill:#40C463"></rect>
	<rect x="326.00" y="56.00" width="11.00" height="11.00" style="fill:#40C463"></rect>
	<rect x="326.00" y="69.00" width="11.00" height="11.00" style="fill:#30A14E"></rect>
	<rect x="326.00" y="82.00" width="11.00" height="11.00" style="fill:#30A14E"></rect>
	<rect x="326.00" y="95.00" width="11.00" height="11.00" style="fill:#40C463"></rect>
	<rect x="339.00" y="17.00" width="11.00" height="11.00" style="fill:#40C463"></rect>
	<rect x="339.00" y="30.00" width="11.00" height="11.00" style="fill:#40C463"></rect>
	<rect x="339.00" y="43.00" width="11.00" height="11.00" style="fill:#30A14E"></rect>
	<rect x="339.00" y="56.00" width="11.00" height="11.00" style="fill:#40C463"></rect>
	<rect x="339.00" y="69.00" width="11.00" height="11.00" style="fill:#EBEDF0"></rect>
	<rect x="339.00" y="82.00" width="11.00" height="11.00" style="fill:#30A14E"></rect>
	<rect x="339.00" y="95.00" width="11.00" height="11.00" style="fill:#EBEDF0"></rect>
	<rect x="352.00" y="17.00" width="11.00" height="11.00" style="fill:#40C463"></rect>
	<rect x="352.00" y="30.00" width="11.00" height="11.00" style="fill:#40C463"></rect>
	<rect x="352.00" y="43.00" width="11.00" height="11.00" style="fill:#30A14E"></rect>
	<rect x="352.00" y="56.00" width="11.00" height="11.00" style="fill:#EBEDF0"></rect>
	<rect x="352.00" y="69.00" width="11.00" height="11.00" style="fill:#EBEDF0"></rect>
	<rect x="352.00" y="82.00" width="11.00" height="11.00" style="fill:#40C463"></rect>
	<rect x="352.00" y="95.00" width="11.00" height="11.00" style="fill:#9BE9A8"></rect>
	<rect x="365.00" y="17.00" width="11.00" height="11.00" style="fill:#30A14E"></rect>
	<rect x="365.00" y="30.00" width="11.00" height="11.00" style="fill:#30A14E"></rect>
	<rect x="365.00" y="43.00" width="11.00" height="11.00" style="fill:#30A14E"></rect>
	<rect x="365.00" y="56.00" width="11.00" height="11.00" style="fill:#40C463"></rect>
	<rect x="365.00" y="69.00" width="11.00" height="11.00" style="fill:#9BE9A8"></rect>
	<rect x="365.00" y="82.00" width="11.00" height="11.00" style="fill:#EBEDF0"></rect>
	<rect x="365.00" y="95.00" width="11.00" height="11.00" style="fill:#30A14E"></rect>
	<text x="378.00" y="5.50" style="font-size: 10px;alignment-baseline: central; fill: #aaa;">Jul</text>
	<rect x="378.00" y="17.00" width="11.00" height="11.00" style="fill:#EBEDF0"></rect>
	<rect x="378.00" y="30.00" width="11.00" height="11.00" style="fill:#30A14E"></rect>
	<rect x="378.00" y="43.00" width="11.00" height="11.00" style="fill:#40C463"></rect>
	<rect x="378.00" y="56.00" width="11.00" height="11.00" style="fill:#EBEDF0"></rect>
	<rect x="378.00" y="69.00" width="11.00" height="11.00" style="fill:#30A14E"></rect>
	<rect x="378.00" y="82.00" width="11.00" height="11.00" style="fill:#40C463"></rect>
	<rect x="378.00" y="95.00" width="11.00" height="11.00" style="fill:#9BE9A8"></rect>
	<rect x="391.00" y="17.00" width="11.00" height="11.00" style="fill:#40C463"></rect>
	<rect x="391.00" y="30.00" width="11.00" height="11.00" style="fill:#9BE9A8"></rect>
	<rect x="391.00" y="43.00" width="11.00" height="11.00" style="fill:#EBEDF0"></rect>
	<rect x="391.00" y="56.00" width="11.00" height="11.00" style="fill:#EBEDF0"></rect>
	<rect x="391.00" y="69.00" width="11.00" height="11.00" style="fill:#EBEDF0"></rect>
	<rect x="391.00" y="82.00" width="11.00" height="11.00" style="fill:#30A14E"></rect>
	<rect x="391.00" y="95.00" width="11.00" height="11.00" style="fill:#40C463"></rect>
	<rect x="404.00" y="17.00" width="11.00" height="11.00" style="fill:#EBEDF0"></rect>
	<rect x="404.00" y="30.00" width="11.00" height="11.00" style="fill:#EBEDF0"></rect>
	<rect x="404.00" y="43.00" width="11.00" height="11.00" style="fill:#9BE9A8"></rect>
	<rect x="404.00" y="56.00" width="11.00" height="11.00" style="fill:#EBEDF0"></rect>
	<rect x="404.00" y="69.00" width="11.00" height="11.00" style="fill:#30A14E"></rect>
	<rect x="404.00" y="82.00" width="11.00" height="11.00" style="fill:#9BE9A8"></rect>
	<rect x="404.00" y="95.00" width="11.00" height="11.00" style="fill:#40C463"></rect>
	<rect x="417.00" y="17.00" width="11.00" height="11.00" style="fill:#EBEDF0"></rect>
	<rect x="417.00" y="30.00" width="11.00" height="11.00" style="fill:#30A14E"></rect>
	<rect x="417.00" y="43.00" width="11.00" height="11.00" style="fill:#40C463"></rect>
	<rect x="417.00" y="56.00" width="11.00" height="11.00" style="fill:#30A14E"></rect>
	<rect x="417.00" y="69.00" width="11.00" height="11.00" style="fill:#EBEDF0"></rect>
	<rect x="417.00" y="82.00" width="11.00" height="11.00" style="fill:#EBEDF0"></rect>
	<rect x="417.00" y="95.00" width="11.00" height="11.00" style="fill:#30A14E"></rect>
	<text x="430.00" y="5.50" style="font-size: 10px;alignment-baseline: central; fill: #aaa;">Aug</text>
	<rect x="430.00" y="17.00" width="11.00" height="11.00" style="fill:#30A14E"></rect>
	<rect x="430.00" y="30.00" width="11.00" height="11.00" style="fill:#EBEDF0"></rect>
	<rect x="430.00" y="43.00" width="11.00" height="11.00" style="fill:#40C463"></rect>
	<rect x="430.00" y="56.00" width="11.00" height="11.00" style="fill:#EBEDF0"></rect>
	<rect x="430.00" y="69.00" width="11.00" height="11.00" style="fill:#30A14E"></rect>
	<rect x="430.00" y="82.00" width="11.00" height="11.00" style="fill:#30A14E"></rect>
	<rect x="430.00" y="95.00" width="11.00" height="11.00" style="fill:#9BE9A8"></rect>
	<rect x="443.00" y="17.00" width="11.00" height="11.00" style="fill:#EBEDF0"></rect>
	<rect x="443.00" y="30.00" width="11.00" height="11.00" style="fill:#30A14E"></rect>
	<rect x="443.00" y="43.00" width="11.00" height="11.00" style="fill:#9BE9A8"></rect>
	<rect x="443.00" y="56.00" width="11.00" height="11.00" style="fill:#9BE9A8"></rect>
	<rect x="443.00" y="69.00" width="11.00" height="11.00" style="fill:#30A14E"></rect>
	<rect x="443.00" y="82.00" width="11.00" height="11.00" style="fill:#9BE9A8"></rect>
	<rect x="443.00" y="95.00" width="11.00" height="11.00" style="fill:#9BE9A8"></rect>
	<rect x="456.00" y="17.00" width="11.00" height="11.00" style="fill:#40C463"></rect>
	<rect x="456.00" y="30.00" width="11.00" height="11.00" style="fill:#EBEDF0"></rect>
	<rect x="456.00" y="43.00" width="11.00" height="11.00" style="fill:#40C463"></rect>
	<rect x="456.00" y="56.00" width="11.00" height="11.00" style="fill:#EBEDF0"></rect>
	<rect x="456.00" y="69.00" width="11.00" height="11.00" style="fill:#EBEDF0"></rect>
	<rect x="456.00" y="82.00" width="11.00" height="11.00" style="fill:#EBEDF0"></rect>
	<rect x="456.00" y="95.00" width="11.00" height="11.00" style="fill:#40C463"></rect>
	<rect x="469.00" y="17.00" width="11.00" height="11.00" style="fill:#9BE9A8"></rect>
	<rect x="469.00" y="30.00" width="11.00" height="11.00" style="fill:#9BE9A8"></rect>
	<rect x="469.00" y="43.00" width="11.00" height="11.00" style="fill:#EBEDF0"></rect>
	<rect x="469.00" y="56.00" width="11.00" height="11.00" style="fill:#EBEDF0"></rect>
	<rect x="469.00" y="69.00" width="11.00" height="11.00" style="fill:#30A14E"></rect>
	<rect x="469.00" y="82.00" width="11.00" height="11.00" style="fill:#40C463"></rect>
	<rect x="469.00" y="95.00" width="11.00" height="11.00" style="fill:#EBEDF0"></rect>
	<rect x="482.00" y="17.00" width="11.00" height="11.00" style="fill:#EBEDF0"></rect>
	<rect x="482.00" y="30.00" width="11.00" height="11.00" style="fill:#30A14E"></rect>
	<rect x="482.00" y="43.00" width="11.00" height="11.00" style="fill:#9BE9A8"></rect>
	<rect x="482.00" y="56.00" width="11.00" height="11.00" style="fill:#9BE9A8"></rect>
	<rect x="482.00" y="69.00" width="11.00" height="11.00" style="fill:#EBEDF0"></rect>
	<rect x="482.00" y="82.00" width="11.00" height="11.00" style="fill:#EBEDF0"></rect>
	<rect x="482.00" y="95.00" width="11.00" height="11.00" style="fill:#30A14E"></rect>
	<text x="495.00" y="5.50" style="font-size: 10px;alignment-baseline: central; fill: #aaa;">Sep</text>
	<rect x="495.00" y="17.00" width="11.00" height="11.00" style="fill:#9BE9A8"></rect>
	<rect x="495.00" y="30.00" width="11.00" height="11.00" style="fill:#9BE9A8"></rect>
	<rect x="495.00" y="43.00" width="11.00" height="11.00" style="fill:#9BE9A8"></rect>
	<rect x="495.00" y="56.00" width="11.00" height="11.00" style="fill:#EBEDF0"></rect>
	<rect x="495.00" y="69.00" width="11.00" height="11.00" style="fill:#9BE9A8"></rect>
	<rect x="495.00" y="82.00" width="11.00" height="11.00" style="fill:#9BE9A8"></rect>
	<rect x="495.00" y="95.00" width="11.00" height="11.00" style="fill:#30A14E"></rect>
	<rect x="508.00" y="17.00" width="11.00" height="11.00" style="fill:#30A14E"></rect>
	<rect x="508.00" y="30.00" width="11.00" height="11.00" style="fill:#40C463"></rect>
	<rect x="508.00" y="43.00" width="11.00" height="11.00" style="fill:#EBEDF0"></rect>
	<rect x="508.00" y="56.00" width="11.00" height="11.00" style="fill:#40C463"></rect>
	<rect x="508.00" y="69.00" width="11.00" height="11.00" style="fill:#EBEDF0"></rect>
	<rect x="508.00" y="82.00" width="11.00" height="11.00" style="fill:#EBEDF0"></rect>
	<rect x="508.00" y="95.00" width="11.00" height="11.00" style="fill:#EBEDF0"></rect>
	<rect x="521.00" y="17.00" width="11.00" height="11.00" style="fill:#9BE9A8"></rect>
	<rect x="521.00" y="30.00" width="11.00" height="11.00" style="fill:#30A14E"></rect>
	<rect x="521.00" y="43.00" width="11.00" height="11.00" style="fill:#30A14E"></rect>
	<rect x="521.00" y="56.00" width="11.00" height="11.00" style="fill:#9BE9A8"></rect>
	<rect x="521.00" y="69.00" width="11.00" height="11.00" style="fill:#40C463"></rect>
	<rect x="521.00" y="82.00" width="11.00" height="11.00" style="fill:#40C463"></rect>
	<rect x="521.00" y="95.00" width="11.00" height="11.00" style="fill:#9BE9A8"></rect>
	<rect x="534.00" y="17.00" width="11.00" height="11.00" style="fill:#40C463"></rect>
	<rect x="534.00" y="30.00" width="11.00" height="11.00" style="fill:#EBEDF0"></rect>
	<rect x="534.00" y="43.00" width="11.00" height="11.00" style="fill:#40C463"></rect>
	<rect x="534.00" y="56.00" width="11.00" height="11.00" style="fill:#EBEDF0"></rect>
	<rect x="534.00" y="69.00" width="11.00" height="11.00" style="fill:#EBEDF0"></rect>
	<rect x="534.00" y="82.00" width="11.00" height="11.00" style="fill:#30A14E"></rect>
	<rect x="534.00" y="95.00" width="11.00" height="11.00" style="fill:#40C463"></rect>
	<text x="547.00" y="5.50" style="font-size: 10px;alignment-baseline: central; fill: #aaa;">Oct</text>
	<rect x="547.00" y="17.00" width="11.00" height="11.00" style="fill:#9BE9A8"></rect>
	<rect x="547.00" y="30.00" width="11.00" height="11.00" style="fill:#EBEDF0"></rect>
	<rect x="547.00" y="43.00" width="11.00" height="11.00" style="fill:#9BE9A8"></rect>
	<rect x="547.00" y="56.00" width="11.00" height="11.00" style="fill:#40C463"></rect>
	<rect x="547.00" y="69.00" width="11.00" height="11.00" style="fill:#EBEDF0"></rect>
	<rect x="547.00" y="82.00" width="11.00" height="11.00" style="fill:#EBEDF0"></rect>
	<rect x="547.00" y="95.00" width="11.00" height="11.00" style="fill:#EBEDF0"></rect>
	<rect x="560.00" y="17.00" width="11.00" height="11.00" style="fill:#40C463"></rect>
	<rect x="560.00" y="30.00" width="11.00" height="11.00" style="fill:#30A14E"></rect>
	<rect x="560.00" y="43.00" width="11.00" height="11.00" style="fill:#9BE9A8"></rect>
	<rect x="560.00" y="56.00" width="11.00" height="11.00" style="fill:#30A14E"></rect>
	<rect x="560.00" y="69.00" width="11.00" height="11.00" style="fill:#9BE9A8"></rect>
	<rect x="560.00" y="82.00" width="11.00" height="11.00" style="fill:#40C463"></rect>
	<rect x="560.00" y="95.00" width="11.00" height="11.00" style="fill:#30A14E"></rect>
	<rect x="573.00" y="17.00" width="11.00" height="11.00" style="fill:#EBEDF0"></rect>
	<rect x="573.00" y="30.00" width="11.00" height="11.00" style="fill:#9BE9A8"></rect>
	<rect x="573.00" y="43.00" width="11.00" height="11.00" style="fill:#30A14E"></rect>
	<rect x="573.00" y="56.00" width="11.00" height="11.00" style="fill:#9BE9A8"></rect>
	<rect x="573.00" y="69.00" width="11.00" height="11.00" style="fill:#30A14E"></rect>
	<rect x="573.00" y="82.00" width="11.00" height="11.00" style="fill:#30A14E"></rect>
	<rect x="573.00" y="95.00" width="11.00" height="11.00" style="fill:#30A14E"></rect>
	<rect x="586.00" y="17.00" width="11.00" height="11.00" style="fill:#9BE9A8"></rect>
	<rect x="586.00" y="30.00" width="11.00" height="11.00" style="fill:#40C463"></rect>
	<rect x="586.00" y="43.00" width="11.00" height="11.00" style="fill:#30A14E"></rect>
	<rect x="586.00" y="56.00" width="11.00" height="11.00" style="fill:#30A14E"></rect>
	<rect x="586.00" y="69.00" width="11.00" height="11.00" style="fill:#EBEDF0"></rect>
	<rect x="586.00" y="82.00" width="11.00" height="11.00" style="fill:#EBEDF0"></rect>
	<rect x="586.00" y="95.00" width="11.00" height="11.00" style="fill:#EBEDF0"></rect>
	<rect x="599.00" y="17.00" width="11.00" height="11.00" style="fill:#9BE9A8"></rect>
	<rect x="599.00" y="30.00" width="11.00" height="11.00" style="fill:#40C463"></rect>
	<rect x="599.00" y="43.00" width="11.00" height="11.00" style="fill:#EBEDF0"></rect>
	<rect x="599.00" y="56.00" width="11.00" height="11.00" style="fill:#30A14E"></rect>
	<rect x="599.00" y="69.00" width="11.00" height="11.00" style="fill:#40C463"></rect>
	<rect x="599.00" y="82.00" width="11.00" height="11.00" style="fill:#40C463"></rect>
	<rect x="599.00" y="95.00" width="11.00" height="11.00" style="fill:#9BE9A8"></rect>
	<text x="612.00" y="5.50" style="font-size: 10px;alignment-baseline: central; fill: #aaa;">Nov</text>
	<rect x="612.00" y="17.00" width="11.00" height="11.00" style="fill:#40C463"></rect>
	<rect x="612.00" y="30.00" width="11.00" height="11.00" style="fill:#30A14E"></rect>
	<rect x="612.00" y="43.00" width="11.00" height="11.00" style="fill:#40C463"></rect>
	<rect x="612.00" y="56.00" width="11.00" height="11.00" style="fill:#40C463"></rect>
	<rect x="612.00" y="69.00" width="11.00" height="11.00" style="fill:#30A14E"></rect>
	<rect x="612.00" y="82.00" width="11.00" height="11.00" style="fill:#40C463"></rect>
	<rect x="612.00" y="95.00" width="11.00" height="11.00" style="fill:#30A14E"></rect>
	<rect x="625.00" y="17.00" width="11.00" height="11.00" style="fill:#EBEDF0"></rect>
	<rect x="625.00" y="30.00" width="11.00" height="11.00" style="fill:#30A14E"></rect>
	<rect x="625.00" y="43.00" width="11.00" height="11.00" style="fill:#9BE9A8"></rect>
	<rect x="625.00" y="56.00" width="11.00" height="11.00" style="fill:#40C463"></rect>
	<rect x="625.00" y="69.00" width="11.00" height="11.00" style="fill:#30A14E"></rect>
	<rect x="625.00" y="82.00" width="11.00" height="11.00" style="fill:#30A14E"></rect>
	<rect x="625.00" y="95.00" width="11.00" height="11.00" style="fill:#40C463"></rect>
	<rect x="638.00" y="17.00" width="11.00" height="11.00" style="fill:#30A14E"></rect>
	<rect x="638.00" y="30.00" width="11.00" height="11.00" style="fill:#EBEDF0"></rect>
	<rect x="638.00" y="43.00" width="11.00" height="11.00" style="fill:#EBEDF0"></rect>
	<rect x="638.00" y="56.00" width="11.00" height="11.00" style="fill:#40C463"></rect>
	<rect x="638.00" y="69.00" width="11.00" height="11.00" style="fill:#9BE9A8"></rect>
	<rect x="638.00" y="82.00" width="11.00" height="11.00" style="fill:#EBEDF0"></rect>
	<rect x="638.00" y="95.00" width="11.00" height="11.00" style="fill:#EBEDF0"></rect>
	<rect x="651.00" y="17.00" width="11.00" height="11.00" style="fill:#30A14E"></rect>
	<rect x="651.00" y="30.00" width="11.00" height="11.00" style="fill:#9BE9A8"></rect>
	<rect x="651.00" y="43.00" width="11.00" height="11.00" style="fill:#40C463"></rect>
	<rect x="651.00" y="56.00" width="11.00" height="11.00" style="fill:#9BE9A8"></rect>
	<rect x="651.00" y="69.00" width="11.00" height="11.00" style="fill:#40C463"></rect>
	<rect x="651.00" y="82.00" width="11.00" height="11.00" style="fill:#30A14E"></rect>
	<rect x="651.00" y="95.00" width="11.00" height="11.00" style="fill:#40C463"></rect>
	<text x="664.00" y="5.50" style="font-size: 10px;alignment-baseline: central; fill: #aaa;">Dec</text>
	<rect x="664.00" y="17.00" width="11.00" height="11.00" style="fill:#9BE9A8"></rect>
	<rect x="664.00" y="30.00" width="11.00" height="11.00" style="fill:#EBEDF0"></rect>
	<rect x="664.00" y="43.00" width="11.00" height="11.00" style="fill:#30A14E"></rect>
	<rect x="664.00" y="56.00" width="11.00" height="11.00" style="fill:#9BE9A8"></rect>
	<rect x="664.00" y="69.00" width="11.00" height="11.00" style="fill:#40C463"></rect>
	<rect x="664.00" y="82.00" width="11.00" height="11.00" style="fill:#40C463"></rect>
	<rect x="664.00" y="95.00" width="11.00" height="11.00" style="fill:#9BE9A8"></rect>
	<rect x="677.00" y="17.00" width="11.00" height="11.00" style="fill:#30A14E"></rect>
	<rect x="677.00" y="30.00" width="11.00" height="11.00" style="fill:#9BE9A8"></rect>
	<rect x="677.00" y="43.00" width="11.00" height="11.00" style="fill:#EBEDF0"></rect>
	<rect x="677.00" y="56.00" width="11.00" height="11.00" style="fill:#EBEDF0"></rect>
	<rect x="677.00" y="69.00" width="11.00" height="11.00" style="fill:#9BE9A8"></rect>
	<rect x="677.00" y="82.00" width="11.00" height="11.00" style="fill:#9BE9A8"></rect>
	<rect x="677.00" y="95.00" width="11.00" height="11.00" style="fill:#EBEDF0"></rect>
	<rect x="690.00" y="17.00" width="11.00" height="11.00" style="fill:#9BE9A8"></rect>
	<rect x="690.00" y="30.00" width="11.00" height="11.00" style="fill:#40C463"></rect>
	<rect x="690.00" y="43.00" width="11.00" height="11.00" style="fill:#EBEDF0"></rect>
	<rect x="690.00" y="56.00" width="11.00" height="11.00" style="fill:#30A14E"></rect>
	<rect x="690.00" y="69.00" width="11.00" height="11.00" style="fill:#EBEDF0"></rect>
	<rect x="690.00" y="82.00" width="11.00" height="11.00" style="fill:#40C463"></rect>
	<rect x="690.00" y="95.00" width="11.00" height="11.00" style="fill:#9BE9A8"></rect>
	<rect x="703.00" y="17.00" width="11.00" height="11.00" style="fill:#30A14E"></rect>
	<rect x="703.00" y="30.00" width="11.00" height="11.00" style="fill:#40C463"></rect>
	<rect x="703.00" y="43.00" width="11.00" height="11.00" style="fill:#30A14E"></rect>
	<rect x="703.00" y="56.00" width="11.00" height="11.00" style="fill:#9BE9A8"></rect>
	<rect x="703.00" y="69.00" width="11.00" height="11.00" style="fill:#EBEDF0"></rect>
	<rect x="703.00" y="82.00" width="11.00" height="11.00" style="fill:#EBEDF0"></rect>
	<text x="0.00" y="22.50" style="font-size: 9px; fill:#aaa"></text>
	<text x="0.00" y="35.50" style="font-size: 9px; fill:#aaa">Mon</text>
	<text x="0.00" y="48.50" style="font-size: 9px; fill:#aaa"></text>
	<text x="0.00" y="61.50" style="font-size: 9px; fill:#aaa">Wed</text>
	<text x="0.00" y="74.50" style="font-size: 9px; fill:#aaa"></text>
	<text x="0.00" y="87.50" style="font-size: 9px; fill:#aaa">Fri</text>
	<text x="0.00" y="100.50" style="font-size: 9px; fill:#aaa"></text>
</svg>
